  <svg xmlns="http://www.w3.org/2000/svg" width="205" height="205" viewBox="0 0 205 205" fill="none">
<rect x="3.5" y="3.5" width="197" height="197" rx="18.5" fill="#D1D5DB" stroke="#EF4444" stroke-width="3"/>
<rect x="3.5" y="3.5" width="197" height="197" rx="18.5" fill="#EFF6FF" stroke="#DC2626" stroke-width="3"/>
<g filter="url(#filter0_d_4_133)">
<path d="M70.0102 71.5143C69.9216 67.1884 70.9 62.9077 72.8585 59.0532C74.715 55.5129 77.335 52.4327 80.5275 50.037C83.6594 47.7146 87.1681 45.9539 90.8985 44.8327C94.7006 43.6172 98.6672 42.9991 102.657 43.0002C106.649 42.9883 110.617 43.6067 114.416 44.8327C118.229 45.9729 121.832 47.7308 125.08 50.037C128.116 52.4968 130.604 55.5684 132.383 59.0532C134.342 62.9077 135.32 67.1884 135.232 71.5143V77.4519L115.877 71.5143C116.006 69.8128 115.714 68.1058 115.026 66.5453C114.337 64.9848 113.275 63.6197 111.933 62.5717C109.208 60.7124 105.989 59.7183 102.694 59.7183C99.3989 59.7183 96.1798 60.7124 93.4548 62.5717C92.1129 63.6197 91.0504 64.9848 90.3622 66.5453C89.674 68.1058 89.3817 69.8128 89.511 71.5143V136.234C89.3809 137.925 89.6733 139.622 90.362 141.171C91.0507 142.72 92.1138 144.072 93.4548 145.104C96.1605 147.012 99.387 148.036 102.694 148.036C106.001 148.036 109.227 147.012 111.933 145.104C113.274 144.072 114.811 139.549 115.5 138C116.189 136.451 116.007 137.925 115.877 136.234V111.244H105.997L100.393 96.5835H135.378V133.234C135.529 137.353 134.669 141.446 132.873 145.153C131.077 148.86 128.401 152.067 125.08 154.492C121.88 156.929 118.267 158.767 114.416 159.916C110.617 161.142 106.649 161.76 102.657 161.749C98.6672 161.75 94.7006 161.132 90.8985 159.916C87.1322 158.779 83.6137 156.938 80.5275 154.492C77.3319 152.251 74.705 149.288 72.8585 145.842C70.8674 141.947 69.8878 137.61 70.0102 133.234V71.5143Z" fill="#3730A3"/>
<path d="M105.997 111.994H115.127V136.234V136.263L115.129 136.292C115.152 136.587 115.177 136.799 115.2 136.955C115.092 137.121 114.967 137.354 114.815 137.695C114.657 138.049 114.46 138.547 114.24 139.099C114.208 139.179 114.176 139.259 114.144 139.341C113.882 139.998 113.588 140.73 113.274 141.444C112.96 142.16 112.634 142.842 112.31 143.4C111.98 143.971 111.697 144.334 111.486 144.501C108.91 146.314 105.84 147.286 102.694 147.286C99.5473 147.286 96.4767 146.313 93.9001 144.5C92.6638 143.545 91.6833 142.297 91.0473 140.866C90.4092 139.431 90.1383 137.859 90.2588 136.292L90.261 136.263V136.234V71.5143V71.4859L90.2589 71.4575C90.1389 69.8789 90.4101 68.2954 91.0485 66.8479C91.6836 65.4078 92.6623 64.1474 93.8976 63.1776C96.4939 61.412 99.558 60.4683 102.694 60.4683C105.83 60.4683 108.894 61.412 111.49 63.1776C112.726 64.1474 113.704 65.4078 114.339 66.8479C114.978 68.2954 115.249 69.879 115.129 71.4575L115.084 72.0554L115.657 72.2313L135.012 78.1689L135.982 78.4665V77.4519V71.5218C136.071 67.0754 135.065 62.6757 133.052 58.7135L133.051 58.7121C131.224 55.1341 128.669 51.9801 125.552 49.4543L125.533 49.4393L125.514 49.4255C122.201 47.0735 118.528 45.2802 114.639 44.1165C110.767 42.868 106.723 42.2382 102.656 42.2502C98.5912 42.2492 94.55 42.8787 90.6764 44.1163C86.8652 45.2626 83.2805 47.0619 80.0807 49.4346L80.0807 49.4346L80.0773 49.4372C76.7956 51.8998 74.1025 55.066 72.1943 58.7049L72.1942 58.7049L72.1899 58.7135C70.1766 62.6757 69.1704 67.0755 69.2602 71.5219V133.224C69.1362 137.722 70.1439 142.179 72.1907 146.183L72.194 146.19L72.1974 146.196C74.0958 149.739 76.7951 152.786 80.0788 155.093C83.2333 157.59 86.8282 159.47 90.6759 160.632C94.5493 161.87 98.5902 162.499 102.655 162.499C106.723 162.511 110.766 161.881 114.639 160.632C118.571 159.458 122.26 157.581 125.528 155.093C128.946 152.596 131.7 149.295 133.548 145.48C135.395 141.667 136.281 137.457 136.128 133.221V96.5835V95.8335H135.378H100.393H99.3038L99.6928 96.8513L105.296 111.512L105.48 111.994H105.997Z" stroke="#DC2626" stroke-width="1.5"/>
</g>
<defs>
<filter id="filter0_d_4_133" x="64.5" y="41.5" width="76.3948" height="129.749" filterUnits="userSpaceOnUse" color-interpolation-filters="sRGB">
<feFlood flood-opacity="0" result="BackgroundImageFix"/>
<feColorMatrix in="SourceAlpha" type="matrix" values="0 0 0 0 0 0 0 0 0 0 0 0 0 0 0 0 0 0 127 0" result="hardAlpha"/>
<feOffset dy="4"/>
<feGaussianBlur stdDeviation="2"/>
<feColorMatrix type="matrix" values="0 0 0 0 0 0 0 0 0 0 0 0 0 0 0 0 0 0 0.25 0"/>
<feBlend mode="normal" in2="BackgroundImageFix" result="effect1_dropShadow_4_133"/>
<feBlend mode="normal" in="SourceGraphic" in2="effect1_dropShadow_4_133" result="shape"/>
</filter>
</defs>
</svg>