<svg width="31" height="31" viewBox="0 0 31 31" fill="none" xmlns="http://www.w3.org/2000/svg">
<g clip-path="url(#clip0_3_21)">
<rect width="31" height="31" fill="black"/>
<g filter="url(#filter0_d_3_21)">
<path d="M15.5793 20.928C14.662 20.928 13.9046 20.8533 13.3073 20.704C12.7206 20.5653 12.2886 20.3573 12.0113 20.08C11.734 19.8027 11.5953 19.456 11.5953 19.04C11.5953 18.5493 11.7873 18.1493 12.1713 17.84C12.566 17.5307 13.142 17.344 13.8993 17.28V16.96C13.3233 16.96 12.8806 16.9013 12.5713 16.784C12.262 16.656 12.1073 16.4373 12.1073 16.128C12.1073 15.8293 12.2566 15.5627 12.5553 15.328C12.8646 15.0933 13.3713 14.9067 14.0753 14.768V14.448C13.414 14.4053 12.8966 14.192 12.5233 13.808C12.15 13.424 11.9633 12.928 11.9633 12.32C11.9633 11.7867 12.1126 11.312 12.4113 10.896C12.71 10.4693 13.1526 10.1333 13.7393 9.888C14.3366 9.632 15.0673 9.504 15.9313 9.504H20.1873V11.264L17.5473 10.896V11.264C18.23 11.36 18.7206 11.5307 19.0193 11.776C19.3286 12.0213 19.4833 12.3627 19.4833 12.8C19.4833 13.2373 19.3393 13.6213 19.0513 13.952C18.7633 14.2827 18.3526 14.544 17.8193 14.736C17.2966 14.9173 16.6673 15.008 15.9313 15.008C15.7926 15.008 15.6433 15.0027 15.4833 14.992C15.3233 14.9813 15.0566 14.9547 14.6833 14.912C14.4806 15.0613 14.3206 15.1947 14.2033 15.312C14.0966 15.4187 14.0433 15.52 14.0433 15.616C14.0433 15.6907 14.0806 15.7547 14.1553 15.808C14.2406 15.8613 14.3473 15.8987 14.4753 15.92C14.614 15.9413 14.7526 15.952 14.8913 15.952H17.2913C17.5046 15.952 17.782 15.968 18.1233 16C18.4646 16.0213 18.806 16.1013 19.1473 16.24C19.4886 16.3787 19.7766 16.6027 20.0113 16.912C20.246 17.2107 20.3633 17.6427 20.3633 18.208C20.3633 18.8267 20.1873 19.3387 19.8353 19.744C19.494 20.1493 18.966 20.448 18.2513 20.64C17.5473 20.832 16.6566 20.928 15.5793 20.928ZM15.8353 19.088C16.486 19.088 16.9926 19.0507 17.3553 18.976C17.718 18.912 17.974 18.8 18.1233 18.64C18.2833 18.4907 18.3633 18.2987 18.3633 18.064C18.3633 17.8507 18.3153 17.6853 18.2193 17.568C18.134 17.4507 18.0166 17.3707 17.8673 17.328C17.7286 17.2747 17.5846 17.2427 17.4353 17.232C17.2966 17.2107 17.174 17.2 17.0673 17.2H15.0513C14.6033 17.2427 14.278 17.3653 14.0753 17.568C13.8833 17.76 13.7873 17.984 13.7873 18.24C13.7873 18.4747 13.862 18.6507 14.0113 18.768C14.1606 18.8853 14.3846 18.9653 14.6833 19.008C14.9926 19.0613 15.3766 19.088 15.8353 19.088ZM15.8033 13.808C16.3153 13.808 16.6993 13.6853 16.9553 13.44C17.2113 13.184 17.3393 12.8533 17.3393 12.448C17.3393 12.0213 17.206 11.6693 16.9393 11.392C16.6833 11.1147 16.3046 10.976 15.8033 10.976C15.3126 10.976 14.9286 11.1147 14.6513 11.392C14.374 11.6587 14.2353 12.0053 14.2353 12.432C14.2353 12.6987 14.294 12.9387 14.4113 13.152C14.5393 13.3547 14.7206 13.5147 14.9553 13.632C15.19 13.7493 15.4726 13.808 15.8033 13.808Z" fill="#FF6367"/>
</g>
<path d="M0 2H88" stroke="#0D542B" stroke-opacity="0.5"/>
<path d="M0 5H88" stroke="#0D542B" stroke-opacity="0.5"/>
<path d="M0 8H88" stroke="#0D542B" stroke-opacity="0.5"/>
<path d="M0 11H88" stroke="#0D542B" stroke-opacity="0.5"/>
<path d="M0 14H88" stroke="#0D542B" stroke-opacity="0.5"/>
<path d="M0 17H88" stroke="#0D542B" stroke-opacity="0.5"/>
<path d="M0 20H88" stroke="#0D542B" stroke-opacity="0.5"/>
<path d="M0 23H88" stroke="#0D542B" stroke-opacity="0.5"/>
<path d="M0 29H88" stroke="#0D542B" stroke-opacity="0.5"/>
<path d="M0 26H88" stroke="#0D542B" stroke-opacity="0.5"/>
</g>
<defs>
<filter id="filter0_d_3_21" x="7.59531" y="5.504" width="16.768" height="19.424" filterUnits="userSpaceOnUse" color-interpolation-filters="sRGB">
<feFlood flood-opacity="0" result="BackgroundImageFix"/>
<feColorMatrix in="SourceAlpha" type="matrix" values="0 0 0 0 0 0 0 0 0 0 0 0 0 0 0 0 0 0 127 0" result="hardAlpha"/>
<feOffset/>
<feGaussianBlur stdDeviation="2"/>
<feComposite in2="hardAlpha" operator="out"/>
<feColorMatrix type="matrix" values="0 0 0 0 1 0 0 0 0 0.388235 0 0 0 0 0.403922 0 0 0 1 0"/>
<feBlend mode="normal" in2="BackgroundImageFix" result="effect1_dropShadow_3_21"/>
<feBlend mode="normal" in="SourceGraphic" in2="effect1_dropShadow_3_21" result="shape"/>
</filter>
<clipPath id="clip0_3_21">
<rect width="31" height="31" fill="white"/>
</clipPath>
</defs>
</svg>
